<?xml version="1.0" standalone="no"?>
<svg viewBox="0 0 200 200" xmlns="http://www.w3.org/2000/svg">
  <path fill="#675527" d="M39.2,-65.1C53.1,-60,68.2,-54,77.6,-43C87,-32.1,90.8,-16,89.3,-0.8C87.8,14.3,81.1,28.7,72,40.1C62.9,51.6,51.3,60.3,38.9,68.1C26.5,75.8,13.3,82.8,-1.4,85.2C-16,87.6,-32.1,85.4,-45.9,78.5C-59.7,71.5,-71.4,59.7,-77.9,45.8C-84.5,31.9,-86,16,-84.2,1C-82.4,-13.9,-77.3,-27.8,-67.3,-35.6C-57.2,-43.5,-42.2,-45.2,-30.1,-51.4C-18.1,-57.7,-9,-68.3,1.8,-71.5C12.7,-74.6,25.4,-70.3,39.2,-65.1Z" transform="translate(100 100)" />
</svg>
